{"title":"IP Man 2 2010 BRRip 720p x264 AAC - PRiSTiNE [P2PDL]","uid":8221245,"size":640273258,"categoryP":"video","categoryS":"hd___movies","magnet":"?xt=urn:btih:96dff4224acc7145ef2a0612e631fa64fdbc4928&amp;dn=IP+Man+2+2010+BRRip+720p+x264+AAC+-+PRiSTiNE+%5BP2PDL%5D&amp;tr=udp%3A%2F%2Ftracker.openbittorrent.com%3A80&amp;tr=udp%3A%2F%2Fopen.demonii.com%3A1337&amp;tr=udp%3A%2F%2Ftracker.coppersurfer.tk%3A6969&amp;tr=udp%3A%2F%2Fexodus.desync.com%3A6969","seeders":2,"leechers":0,"uploader":"Vitamin_X","files":-1,"time":1362442189,"description":"_________________________  Visit us at _________________________\n  &lt;a href=&quot;\nhttp://p2pdl.com&quot; rel=&quot;nofollow&quot; target=&quot;_NEW&quot;&gt;\nhttp://p2pdl.com&lt;/a&gt;  ____________________________ &lt;a href=&quot; http://p2pdl.com&quot; rel=&quot;nofollow&quot; target=&quot;_NEW&quot;&gt; http://p2pdl.com&lt;/a&gt;\n\n\nIP Man 2 2010 BRRip 720p x264 AAC - PRiSTiNE\n\nGenre: Action | Biography | History\nPlot: Centering on Ip Man's migration to Hong Kong in 1949 as he \nattempts to propagate his discipline of Wing Chun martial arts.\nDirector: Wilson Yip\nStars: Donnie Yen, Xiaoming Huang, Sammo Hung Kam-Bo\nRated: Rated R for violence\n\nInfo: &lt;a href=&quot;\nhttp://www.imdb.com/title/tt1386932/&quot; rel=&quot;nofollow&quot; target=&quot;_NEW&quot;&gt;\nhttp://www.imdb.com/title/tt1386932/&lt;/a&gt;\n\nGeneral\nComplete name                  : IP Man 2 2010 BRRip 720p x264 AAC - PRiSTiNE.mp4\nFormat                         : MPEG-4\nFormat profile                 : Base Media\nCodec ID                       : isom\nFile size                      : 604 MiB\nDuration                       : 1h 48mn\nOverall bit rate mode          : Variable\nOverall bit rate               : 782 Kbps\n\nSource                         : 720p.Blu-ray.DTS.x264-ViSTA (Thanks)\n\nVideo\nFormat                         : AVC\nFormat/Info                    : Advanced Video Codec\nFormat profile                 : &lt;a class=&quot;__cf_email__&quot; href=&quot;/cdn-cgi/l/email-protection&quot; data-cfemail=&quot;4008292728000c746e71&quot;&gt;[email&amp;#160;protected]&lt;/a&gt;&lt;script cf-hash='f9e31' type=&quot;text/javascript&quot;&gt;\n/* &lt;![CDATA[ */!function(){try{var t=&quot;currentScript&quot;in document?document.currentScript:function(){for(var t=document.getElementsByTagName(&quot;script&quot;),e=t.length;e--;)if(t[e].getAttribute(&quot;cf-hash&quot;))return t[e]}();if(t&amp;&amp;t.previousSibling){var e,r,n,i,c=t.previousSibling,a=c.getAttribute(&quot;data-cfemail&quot;);if(a){for(e=&quot;&quot;,r=parseInt(a.substr(0,2),16),n=2;a.length-n;n+=2)i=parseInt(a.substr(n,2),16)^r,e+=String.fromCharCode(i);e=document.createTextNode(e),c.parentNode.replaceChild(e,c)}}}catch(u){}}();/* ]]&gt; */&lt;/script&gt;\nFormat settings, CABAC         : Yes\nFormat settings, ReFrames      : 8 frames\nBit rate                       : 699 Kbps\nWidth                          : 1 280 pixels\nHeight                         : 544 pixels\nDisplay aspect ratio           : 2.35:1\nFrame rate mode                : Constant\nFrame rate                     : 24.000 fps\nBit depth                      : 8 bits\nScan type                      : Progressive\nBits/(Pixel*Frame)             : 0.042\nStream size                    : 540 MiB (89%)\nWriting library                : x264 core 129 r2245 bc13772\n\nAudio\nFormat/Info                    : Advanced Audio Codec\nBit rate mode                  : Variable\nBit rate                       : 79.9 Kbps\nChannel(s)                     : 2 channels\nChannel positions              : Front: L R\nSampling rate                  : 48.0 KHz / 24.0 KHz\nStream size                    : 61.8 MiB (10%)\nLanguage                       : Chinese\n\nSubtitle                       : Yes (English)\n\nScreens: &lt;a href=&quot;\nhttp://imgr.us/images/yj4gncvip8ptwxuwc09.jpg&quot; rel=&quot;nofollow&quot; target=&quot;_NEW&quot;&gt;\nhttp://imgr.us/images/yj4gncvip8ptwxuwc09.jpg&lt;/a&gt; &lt;a href=&quot;\nhttp://imgr.us/images/iznmsizh27i33wnrq9p.jpg&quot; rel=&quot;nofollow&quot; target=&quot;_NEW&quot;&gt;\nhttp://imgr.us/images/iznmsizh27i33wnrq9p.jpg&lt;/a&gt; &lt;a href=&quot;\nhttp://imgr.us/images/j610nyhm5go25dj5q93w.jpg&quot; rel=&quot;nofollow&quot; target=&quot;_NEW&quot;&gt;\nhttp://imgr.us/images/j610nyhm5go25dj5q93w.jpg&lt;/a&gt; &lt;a href=&quot;\nhttp://imgr.us/images/z2zs3kqoz1nt5uydpm.jpg&quot; rel=&quot;nofollow&quot; target=&quot;_NEW&quot;&gt;\nhttp://imgr.us/images/z2zs3kqoz1nt5uydpm.jpg&lt;/a&gt;\n\nThumbs: &lt;a href=&quot;\nhttp://imgr.us/images/am2g837wholc0p2207e1.jpg&quot; rel=&quot;nofollow&quot; target=&quot;_NEW&quot;&gt;\nhttp://imgr.us/images/am2g837wholc0p2207e1.jpg&lt;/a&gt;\n----------------------------------------------------------------------------------------------------\nEncoded using revolutionary 10bit encoding, which enables us to provide you more crispier \nand sharper images at small sizes, just make sure you follow our instructions without a fault.\nRecommend to you to use latest version of VLC player. Install K-Lite Codec Pack or shark007 codecs\nin case of any kind of problem in playback (For non-VLC Media Player users). Alternatively, install\nCore AVC codecs, the fastest decoder that there is coupled with Community Center Codec Pack and play\non Windows Media Player Classic. Check sample to be sure.\nEnjoy!","torrent":{"xt":"urn:btih:96dff4224acc7145ef2a0612e631fa64fdbc4928","amp;dn":"IP+Man+2+2010+BRRip+720p+x264+AAC+-+PRiSTiNE+%5BP2PDL%5D","amp;tr":["udp%3A%2F%2Ftracker.openbittorrent.com%3A80","udp%3A%2F%2Fopen.demonii.com%3A1337","udp%3A%2F%2Ftracker.coppersurfer.tk%3A6969","udp%3A%2F%2Fexodus.desync.com%3A6969"],"infoHash":"96dff4224acc7145ef2a0612e631fa64fdbc4928","infoHashBuffer":{"type":"Buffer","data":[150,223,244,34,74,204,113,69,239,42,6,18,230,49,250,100,253,188,73,40]},"announce":[],"urlList":[]}}